<?xml version="1.0" encoding="utf-8"?>
<!-- Generator: Adobe Illustrator 25.2.0, SVG Export Plug-In . SVG Version: 6.00 Build 0)  -->
<svg version="1.1" id="Layer_1" xmlns="http://www.w3.org/2000/svg" xmlns:xlink="http://www.w3.org/1999/xlink" x="0px" y="0px"
	 viewBox="0 0 612 792" style="enable-background:new 0 0 612 792;" xml:space="preserve">
<style type="text/css">
	.st0{fill:#ED2024;fill-opacity:0.8;}
</style>
<path class="st0" d="M227.4,420.2c-4-4.4-6.3-10.1-6.6-16.1v-74.2c0.3-6,2.7-11.6,6.6-16.1l5.2-5.3c1.8-1.8,2.7-4.2,2.7-6.6
	c0-2.5-1-4.9-2.7-6.6L177,239.6c-1.8-1.8-4.2-2.7-6.6-2.7c-2.5,0-4.9,1-6.6,2.7l-21.2,21.2c-1.8,1.8-2.7,4.2-2.7,6.6s1,4.9,2.7,6.6
	l39.7,39.8c4,4.4,6.3,10.1,6.6,16.1v74.2c-0.3,6-2.7,11.6-6.6,16L142.5,460c-1.8,1.8-2.7,4.2-2.7,6.6c0,2.5,1,4.9,2.7,6.7l21.2,21.2
	c1.8,1.8,4.2,2.7,6.6,2.7s4.9-1,6.6-2.7l55.6-55.7c1.8-1.8,2.7-4.2,2.7-6.6c0-2.5-1-4.9-2.7-6.6L227.4,420.2z"/>
<path class="st0" d="M380.3,467c-4.4,4-10.1,6.3-16,6.7h-74.1c-5.9-0.3-11.6-2.7-16.1-6.7l-5.2-5.3c-1.8-1.8-4.2-2.7-6.6-2.7
	c-2.5,0-4.9,1-6.7,2.7l-55.6,55.7c-1.8,1.8-2.7,4.2-2.7,6.7c0,2.5,1,4.9,2.7,6.7l21.2,21.2c1.8,1.8,4.2,2.7,6.6,2.7
	c2.5,0,4.9-1,6.6-2.7l39.7-39.8c4.4-4,10.1-6.3,16-6.6h74.1c5.9,0.3,11.6,2.7,16,6.6L420,552c1.8,1.8,4.2,2.7,6.6,2.7
	c2.5,0,4.9-1,6.6-2.7l21.2-21.2c1.8-1.8,2.7-4.2,2.7-6.7c0-2.5-1-4.9-2.7-6.7l-55.7-55.7c-1.8-1.8-4.2-2.7-6.6-2.7
	c-2.5,0-4.9,1-6.6,2.7L380.3,467z"/>
<path class="st0" d="M428.4,314.4c4,4.4,6.3,10.1,6.7,16.1v74.2c-0.3,6-2.7,11.6-6.7,16.1l-5.2,5.3c-1.8,1.8-2.7,4.2-2.7,6.7
	c0,2.5,1,4.9,2.7,6.6l55.7,55.7c1.8,1.8,4.2,2.7,6.6,2.7c2.5,0,4.9-1,6.6-2.7l21.2-21.2c1.8-1.8,2.7-4.2,2.7-6.7
	c0-2.5-1-4.9-2.7-6.7l-39.7-39.8c-4-4.4-6.3-10.1-6.7-16.1l0-74.2c0.3-6,2.7-11.6,6.6-16.1l39.7-39.8c1.8-1.8,2.7-4.2,2.7-6.6
	c0-2.5-1-4.9-2.7-6.6l-21.2-21.2c-0.9-0.9-1.9-1.6-3-2c-1.1-0.5-2.4-0.7-3.6-0.7c-1.2,0-2.5,0.2-3.6,0.7c-1.1,0.5-2.2,1.2-3,2
	l-55.7,55.7c-1.8,1.8-2.7,4.2-2.7,6.7c0,2.5,1,4.9,2.7,6.7L428.4,314.4z"/>
<path class="st0" d="M275.4,267.6c4.4-4,10.1-6.3,16-6.7h74.1c5.9,0.3,11.6,2.7,16,6.7l5.3,5.3c0.9,0.9,1.9,1.6,3,2
	c1.1,0.5,2.4,0.7,3.6,0.7c1.2,0,2.5-0.2,3.6-0.7c1.1-0.5,2.2-1.2,3-2l55.7-55.7c1.8-1.8,2.7-4.2,2.7-6.7c0-2.5-1-4.9-2.7-6.7
	l-21.2-21.2c-1.8-1.8-4.2-2.8-6.6-2.8c-2.5,0-4.9,1-6.6,2.8l-39.7,39.8c-4.4,4-10.1,6.3-16,6.7h-74.1c-5.9-0.3-11.6-2.7-16-6.7
	l-39.7-39.8c-1.8-1.8-4.2-2.7-6.6-2.7c-2.5,0-4.9,1-6.6,2.7l-21.2,21.2c-1.8,1.8-2.7,4.2-2.7,6.7s1,4.9,2.7,6.7l55.6,55.7
	c1.8,1.8,4.2,2.8,6.6,2.8c2.5,0,4.9-1,6.6-2.8L275.4,267.6z"/>
</svg>
